<svg width="40" height="40" viewBox="0 0 40 40" fill="none" xmlns="http://www.w3.org/2000/svg">
<path d="M40 20C40 31.045 31.045 40 20 40C8.955 40 0 31.045 0 20C0 8.955 8.955 0 20 0C31.045 0 40 8.955 40 20Z" fill="#33BEF0"/>
<path d="M7.55301 19.717C14.543 16.642 23.588 12.893 24.837 12.374C28.112 11.016 29.117 11.276 28.616 14.284C28.256 16.446 27.218 23.603 26.39 28.058C25.899 30.7 24.797 31.013 23.065 29.87C22.232 29.32 18.027 26.539 17.114 25.886C16.281 25.291 15.132 24.575 16.573 23.165C17.086 22.663 20.447 19.453 23.066 16.955C23.409 16.627 22.978 16.088 22.582 16.351C19.052 18.692 14.158 21.941 13.535 22.364C12.594 23.003 11.69 23.296 10.068 22.83C8.84201 22.478 7.64501 22.058 7.17901 21.898C5.38401 21.282 5.81001 20.484 7.55301 19.717Z" fill="white"/>
</svg>
